<svg xmlns="http://www.w3.org/2000/svg" width="124" height="20.56" viewBox="0 0 124 20.56">
  <g id="beaconstac-logo" transform="translate(-4 -4.26)">
    <g id="Group" transform="translate(4 4)">
      <g id="Beaconstac_Logo_White" transform="translate(24 1)">
        <path id="Fill-1" d="M61,6.7V18H58.944V6.723H54.056V18H52V5h2.056V6.7L55.206,5H58.48A2.339,2.339,0,0,1,61,6.7" fill="#fff" fill-rule="evenodd"/>
        <path id="Fill-2" d="M43.056,16.276h4.888V6.723H43.056ZM47.478,5H43.52A2.329,2.329,0,0,0,41,7.542v7.917A2.328,2.328,0,0,0,43.52,18h3.958A2.329,2.329,0,0,0,50,15.458V7.542A2.329,2.329,0,0,0,47.478,5Z" fill="#fff" fill-rule="evenodd"/>
        <path id="Fill-3" d="M2.058,16.232H6.943V6.437H2.058ZM6.479,4.671H2.055V0H0V18H2.055V16.257L3.228,18h3.25A2.36,2.36,0,0,0,9,15.394V7.277A2.361,2.361,0,0,0,6.479,4.671Z" fill="#fff" fill-rule="evenodd"/>
        <path id="Fill-4" d="M71,15.457A2.329,2.329,0,0,1,68.479,18H64.522A2.33,2.33,0,0,1,62,15.457V14.11h2.056v2.166h4.888V12.517H64.522A2.329,2.329,0,0,1,62,9.975V7.543A2.33,2.33,0,0,1,64.522,5h3.957A2.329,2.329,0,0,1,71,7.543V8.892H68.944V6.727H64.056v3.734h4.423A2.33,2.33,0,0,1,71,13v2.452" fill="#fff" fill-rule="evenodd"/>
        <path id="Fill-5" d="M79,18H76.343a2.2,2.2,0,0,1-2.367-2.443V7.311H72V5.656h1.975V3h1.931V5.656H79V7.311H75.906v9.031H79V18" fill="#fff" fill-rule="evenodd"/>
        <path id="Fill-6" d="M82.057,16.278h4.887V12.363H82.057ZM86.481,5H82.764a2.328,2.328,0,0,0-2.519,2.542v1.35H82.3V6.723h4.644v3.914H82.519A2.328,2.328,0,0,0,80,13.178v2.28A2.328,2.328,0,0,0,82.519,18h3.255l1.171-1.7V18H89V7.542A2.328,2.328,0,0,0,86.481,5Z" fill="#fff" fill-rule="evenodd"/>
        <path id="Fill-7" d="M23.057,16.278h4.886V12.363H23.057ZM27.479,5H23.766a2.33,2.33,0,0,0-2.521,2.542v1.35H23.3V6.723h4.643v3.914H23.521a2.347,2.347,0,0,0-2.228,1.2A2.916,2.916,0,0,0,21,13.178v2.28A2.329,2.329,0,0,0,23.521,18h3.252l1.17-1.7V18H30V7.542A2.329,2.329,0,0,0,27.479,5Z" fill="#fff" fill-rule="evenodd"/>
        <path id="Fill-8" d="M100,15.457A2.329,2.329,0,0,1,97.48,18H93.52A2.33,2.33,0,0,1,91,15.457V7.543A2.331,2.331,0,0,1,93.52,5H97.48A2.329,2.329,0,0,1,100,7.543V8.892H97.945V6.727H93.056v9.549h4.889V14.11H100v1.347" fill="#fff" fill-rule="evenodd"/>
        <path id="Fill-9" d="M37.945,8.891V6.726H33.055v9.55h4.889V14.111H40v1.346A2.329,2.329,0,0,1,37.479,18h-3.96A2.33,2.33,0,0,1,31,15.457V7.543A2.33,2.33,0,0,1,33.519,5h3.96A2.329,2.329,0,0,1,40,7.543V8.891H37.945" fill="#fff" fill-rule="evenodd"/>
        <path id="Fill-10" d="M19,8.891H16.945V6.722l-4.888,0v9.55h4.888V14.111H19v1.346A2.33,2.33,0,0,1,16.479,18H12.521A2.331,2.331,0,0,1,10,15.457V7.543A2.331,2.331,0,0,1,12.521,5h3.959A2.33,2.33,0,0,1,19,7.543Z" fill="#fff" fill-rule="evenodd"/>
        <path id="Fill-13" d="M19,7.99V9.822a1.775,1.775,0,0,1-.874,1.652A3.275,3.275,0,0,1,16.244,12H13.009l-.3-.526L12,10.221h4.968V6l1.694,1.99S19,7.3,19,7.99Z" fill="#fff" fill-rule="evenodd"/>
      </g>
      <g id="Group-11">
        <g id="Group-3" transform="translate(8.947 0.079)">
          <path id="Fill-1-2" data-name="Fill-1" d="M.96.181C.71.181.465.2.219.22V5.542A1.51,1.51,0,0,0,1.7,7.08h.005L.96,10.46,4.228,7.08h6.078A9.936,9.936,0,0,0,.96.181" fill="#fff" fill-rule="evenodd"/>
        </g>
        <g id="Group-6" transform="translate(0 0.339)">
          <path id="Fill-4-2" data-name="Fill-4" d="M6.648,9.431V9.426h0l3.259.774L6.648,6.81V.5A10.256,10.256,0,0,0,0,10.2c0,.259.02.513.038.77H5.167A1.51,1.51,0,0,0,6.648,9.431" fill="#fff" fill-rule="evenodd"/>
        </g>
        <path id="Fill-7-2" data-name="Fill-7" d="M9.166,13.921H9.16l.746-3.382L6.638,13.921H.56a9.936,9.936,0,0,0,9.346,6.9c.25,0,.495-.019.741-.04V15.459a1.51,1.51,0,0,0-1.482-1.537" fill="#fff" fill-rule="evenodd"/>
        <path id="Fill-9-2" data-name="Fill-9" d="M13.166,11.309v.005h0l-3.259-.774,3.259,3.391v6.306a10.255,10.255,0,0,0,6.647-9.7c0-.258-.018-.513-.038-.767H14.647a1.51,1.51,0,0,0-1.482,1.537" fill="#fff" fill-rule="evenodd"/>
      </g>
    </g>
  </g>
</svg>
